<svg width="26" height="26" viewBox="0 0 26 26" xmlns="http://www.w3.org/2000/svg">
<rect x="11.2666" width="3.46667" height="26" rx="1.73333" fill="currentColor"/>
<rect x="11.2666" width="3.46667" height="26" rx="1.73333" fill="currentColor"/>
<rect x="11.2666" width="3.46667" height="26" rx="1.73333" fill="currentColor"/>
<rect x="11.2666" width="3.46667" height="26" rx="1.73333" fill="currentColor"/>
<rect x="11.2666" width="3.46667" height="26" rx="1.73333" fill="currentColor"/>
<rect x="11.2666" width="3.46667" height="26" rx="1.73333" fill="currentColor"/>
<rect x="26" y="11.2667" width="3.46667" height="26" rx="1.73333" transform="rotate(90 26 11.2667)" fill="currentColor"/>
<rect x="26" y="11.2667" width="3.46667" height="26" rx="1.73333" transform="rotate(90 26 11.2667)" fill="currentColor"/>
<rect x="26" y="11.2667" width="3.46667" height="26" rx="1.73333" transform="rotate(90 26 11.2667)" fill="currentColor"/>
<rect x="26" y="11.2667" width="3.46667" height="26" rx="1.73333" transform="rotate(90 26 11.2667)" fill="currentColor"/>
<rect x="26" y="11.2667" width="3.46667" height="26" rx="1.73333" transform="rotate(90 26 11.2667)" fill="currentColor"/>
<rect x="26" y="11.2667" width="3.46667" height="26" rx="1.73333" transform="rotate(90 26 11.2667)" fill="currentColor"/>
</svg>
