<svg width="1437" height="586" viewBox="0 0 1437 586" fill="none" xmlns="http://www.w3.org/2000/svg">
<g style="mix-blend-mode:luminosity" opacity="0.3" clip-path="url(#clip0_34_705)">
<path d="M1181.5 61.0082L1128.39 100.428L1136.68 106.895L991.991 292.088L1003.14 300.759L1147.83 115.567L1156.12 122.016L1181.5 61.0082Z" fill="url(#paint0_linear_34_705)"/>
<path d="M1273.5 340L1236.94 367.153L1242.66 371.597L1143 499.142L1150.67 505.103L1250.33 377.577L1256.04 382.021L1273.5 340Z" fill="url(#paint1_linear_34_705)"/>
<path d="M1448 20.6673V32.6088C1397.72 99.7954 1347.05 167.054 1289.19 224.323C1266.91 246.363 1243.59 266.886 1218.81 285.367C1193.71 304.101 1168.04 319.656 1142.31 332.013C1067.59 367.874 992.146 376.744 926.912 357.07C905.753 350.711 884.504 341.227 864.087 332.14C815.144 310.316 769.73 290.082 725.728 308.455C725.312 308.636 724.896 308.853 724.479 309.033L731.394 299.603C775.088 285.53 820.99 305.908 866.222 326.015C886.477 334.994 907.581 344.406 928.397 350.639C1014.37 376.401 1118.59 351.524 1214.89 279.604C1304.07 212.96 1374.51 118.963 1444.4 25.3824C1444.83 24.7863 1445.28 24.154 1445.76 23.5397C1446.52 22.5642 1447.28 21.5886 1448 20.6673Z" fill="url(#paint2_linear_34_705)"/>
<path d="M777.151 528.352H778.418C778.509 528.352 778.581 528.424 778.581 528.515V539.462C778.581 539.553 778.509 539.625 778.418 539.625H777.188C777.097 539.625 777.025 539.553 777.025 539.462V529.942C777.025 529.888 776.97 529.87 776.952 529.888L775.468 530.412C775.36 530.466 775.287 530.393 775.287 530.285V529.4C775.287 529.328 775.323 529.237 775.396 529.201L776.934 528.406C777.007 528.37 777.097 528.352 777.151 528.352Z" fill="#45166B"/>
<path d="M786.6 536.12C786.6 536.789 786.509 537.403 786.256 537.945C785.821 539.083 784.844 539.752 783.505 539.752C781.984 539.752 780.898 538.939 780.572 537.475C780.518 537.259 780.482 537.06 780.464 536.825C780.446 536.735 780.518 536.662 780.609 536.662H781.857C781.948 536.662 782.02 536.717 782.038 536.825C782.057 536.933 782.075 537.06 782.111 537.168C782.292 537.963 782.781 538.397 783.523 538.397C784.265 538.397 784.772 537.945 784.953 537.15C785.025 536.843 785.043 536.464 785.043 536.138C785.043 535.759 785.007 535.362 784.934 535.018C784.753 534.278 784.247 533.916 783.523 533.916C782.835 533.916 782.292 534.242 782.075 534.874C782.057 534.964 782.002 535 781.894 535H780.645C780.554 535 780.482 534.928 780.482 534.838V528.515C780.482 528.424 780.554 528.352 780.645 528.352H786.147C786.238 528.352 786.31 528.424 786.31 528.515V529.526C786.31 529.617 786.238 529.689 786.147 529.689H782.093C782.057 529.689 782.02 529.725 782.02 529.761L782.002 533.194C782.002 533.248 782.038 533.266 782.075 533.23C782.509 532.796 783.161 532.579 783.83 532.579C784.971 532.579 785.821 533.103 786.22 534.115C786.491 534.675 786.6 535.362 786.6 536.12Z" fill="#45166B"/>
<path d="M787.957 540.817L788.5 537.24C788.519 537.132 788.573 537.096 788.663 537.096H789.749C789.858 537.096 789.912 537.168 789.876 537.277L789.025 540.854C789.007 540.926 788.953 540.998 788.844 540.998H788.102C788.012 540.998 787.939 540.926 787.957 540.817Z" fill="#45166B"/>
<path d="M798.31 535.362V536.446C798.31 536.536 798.238 536.608 798.147 536.608H797.532C797.496 536.608 797.46 536.644 797.46 536.68V539.462C797.46 539.553 797.387 539.625 797.297 539.625H796.066C795.975 539.625 795.903 539.553 795.903 539.462V536.68C795.903 536.644 795.867 536.608 795.831 536.608H791.487C791.396 536.608 791.324 536.536 791.324 536.446V535.56C791.324 535.488 791.324 535.452 791.36 535.362L794.111 528.479C794.147 528.388 794.202 528.352 794.292 528.352H795.613C795.722 528.352 795.776 528.424 795.722 528.551L793.134 535.127C793.116 535.163 793.134 535.199 793.188 535.199H795.831C795.867 535.199 795.903 535.163 795.903 535.127V532.85C795.903 532.76 795.975 532.688 796.066 532.688H797.297C797.387 532.688 797.46 532.76 797.46 532.85V535.127C797.46 535.163 797.496 535.199 797.532 535.199H798.147C798.238 535.199 798.31 535.271 798.31 535.362Z" fill="#45166B"/>
<path d="M804.555 533.7C804.935 533.916 805.261 534.26 805.478 534.729C805.713 535.199 805.822 535.759 805.822 536.427C805.822 537.096 805.695 537.638 805.496 538.09C805.044 539.101 804.048 539.752 802.727 539.752C801.478 539.752 800.464 539.137 799.994 538.053C799.777 537.566 799.668 537.024 799.668 536.409C799.668 535.759 799.795 535.199 799.994 534.747C800.211 534.278 800.537 533.934 800.917 533.682C800.971 533.645 800.971 533.609 800.917 533.591C800.555 533.356 800.265 533.067 800.084 532.706C799.849 532.29 799.704 531.748 799.704 531.152C799.704 530.52 799.849 529.978 800.102 529.526C800.609 528.659 801.55 528.153 802.763 528.153C804.012 528.153 804.989 528.659 805.496 529.617C805.713 530.014 805.858 530.556 805.858 531.152C805.858 531.73 805.732 532.236 805.496 532.652C805.279 533.031 804.971 533.32 804.609 533.573C804.537 533.627 804.537 533.663 804.555 533.7ZM801.206 531.315C801.206 531.712 801.297 532.074 801.442 532.363C801.695 532.832 802.13 533.121 802.727 533.121C803.36 533.121 803.795 532.814 804.066 532.308C804.211 532.038 804.302 531.694 804.302 531.315C804.302 530.954 804.211 530.61 804.066 530.339C803.813 529.852 803.36 529.526 802.727 529.526C802.093 529.526 801.659 529.852 801.406 530.339C801.279 530.592 801.206 530.917 801.206 531.315ZM804.284 536.301C804.284 535.922 804.193 535.524 804.084 535.217C803.867 534.603 803.397 534.26 802.727 534.26C802.057 534.26 801.623 534.639 801.388 535.217C801.261 535.542 801.206 535.904 801.206 536.319C801.206 536.789 801.279 537.168 801.424 537.511C801.659 538.09 802.112 538.415 802.727 538.415C803.342 538.415 803.795 538.09 804.03 537.511C804.193 537.186 804.284 536.789 804.284 536.301Z" fill="#45166B"/>
<path d="M0 521.65C0.959312 520.692 1.79192 519.861 1.88242 519.807C34.5352 487.09 74.8444 465.573 117.869 457.317C119.769 456.956 121.67 456.613 123.588 456.306C151.68 451.699 180.803 452.62 209.619 459.702C213.836 460.75 218.09 461.924 222.397 463.189C224.66 463.839 226.923 464.544 229.185 465.266C237.584 467.904 272.155 479.593 274.2 480.261C310.075 491.733 346.981 500.332 382.186 486.006C411.074 474.245 436.433 447.851 459.366 405.721C460.271 404.059 461.176 402.343 462.081 400.627C466.986 391.305 471.638 381.188 476.307 370.367C476.995 368.759 490.118 335.897 495.566 321.571C509.883 283.723 524.798 244.304 547.007 211.189C568.872 178.616 603.462 149.765 640.404 143.641C642.359 143.316 644.332 143.045 646.305 142.864C656.911 141.907 667.663 142.937 678.342 146.369C707.827 155.908 734.923 184.235 752.463 224.215C767.993 259.623 775.178 299.639 782.147 338.445L782.69 341.425C787.903 370.331 793.804 403.12 808.121 432.098C816.031 448.104 826.348 461.635 837.896 471.86C840.086 473.793 842.312 475.6 844.575 477.28C854.24 484.452 864.666 489.276 875.273 491.389C914.315 499.122 949.321 471.282 969.683 437.156C971.584 433.976 973.249 430.725 974.932 427.491C975.24 426.913 975.512 426.353 975.783 425.775C990.716 395.424 997.051 360.72 1003.39 327.153C1005.52 315.935 1007.66 304.716 1010.06 293.587C1012.58 282.061 1015.39 271.294 1018.57 261.286C1019.26 259.1 1019.98 256.95 1020.71 254.836C1032.96 219.138 1049.52 193.539 1071.17 177.207C1123.25 137.986 1194.99 157.877 1239.97 193.81C1254.18 205.155 1266.96 218.181 1278.78 232.272C1280.28 234.06 1281.77 235.885 1283.23 237.728C1308.94 270.047 1330.02 307.498 1350.66 344.478L1355.45 353.042C1381.08 398.857 1409.43 446.442 1447.96 483.766V473.613C1412.6 437.752 1385.9 392.841 1361.63 349.519L1356.83 340.956C1336.03 303.758 1314.84 266.091 1288.86 233.428C1287.4 231.585 1285.91 229.761 1284.41 227.972C1272.19 213.411 1258.98 199.898 1244.21 188.137C1197.24 150.759 1122.25 130.327 1067.57 171.589C1044.91 188.697 1027.66 215.218 1014.97 252.072C1014.25 254.186 1013.54 256.336 1012.83 258.521C1009.5 268.909 1006.59 280.056 1003.98 291.997C1001.56 303.162 999.404 314.471 997.268 325.708C991.023 358.805 984.562 392.877 970.317 422.505C968.833 425.576 967.24 428.611 965.502 431.628C963.547 435.042 961.375 438.384 959.077 441.654C939.601 469.458 908.903 491.444 876.033 484.904C868.177 483.35 860.43 480.134 853.027 475.528C850.512 473.956 848.032 472.204 845.606 470.325C832.882 460.443 821.605 446.225 813.098 429.026C799.197 400.97 793.405 368.669 788.265 340.233L787.722 337.252C780.645 297.977 773.35 257.492 757.458 221.288C739.756 181.001 712.66 151.879 682.741 141.22C681.781 140.877 680.822 140.552 679.844 140.227C668.532 136.577 657.129 135.475 645.907 136.595C643.879 136.794 641.87 137.065 639.843 137.372C626.014 139.522 612.584 144.852 599.95 152.277C577.343 165.555 557.378 185.698 542.916 207.341C520.309 241.088 505.286 280.815 490.878 318.97C485.647 332.808 480.199 347.026 474.606 360.756C474.335 361.406 472.796 365.092 472.289 366.284C467.456 377.792 462.425 388.433 457.266 398.206C456.361 399.922 455.438 401.639 454.533 403.301C432.432 443.732 407.997 469.06 380.394 480.333C347.687 493.702 312.935 486.584 278.979 475.889C277.006 475.275 230.398 459.792 228.226 459.142C222.162 457.299 216.117 455.565 210.162 454.102C179.482 446.604 148.404 445.9 118.611 451.482C116.819 451.825 115.027 452.187 113.253 452.548C71.333 461.292 32.0555 482.718 0 514.73V521.65Z" fill="#38ACA8"/>
<path d="M0 456.848C13.1951 414.971 27.1322 372.047 44.6352 331.778C45.3954 330.008 46.1737 328.273 46.9701 326.539C55.2781 308.365 64.3282 290.751 74.6272 274.203C113.633 211.587 165.689 174.335 217.8 172.745C267.576 171.282 320.971 201.054 381.245 264.899C385.879 269.813 415.599 303.036 423.817 312.43C439.455 330.369 455.565 348.67 472.344 366.248C473.647 367.621 474.968 368.994 476.307 370.349C494.371 388.812 513.395 406.3 533.957 421.222C541.74 426.877 549.776 432.134 557.994 437.084C561.107 438.963 564.238 440.769 567.406 442.54C622.793 473.324 687.682 488.409 757.911 486.981C785.984 486.403 814.981 483.224 844.575 477.244C847.38 476.684 850.222 476.088 853.064 475.474C878.06 470.108 903.473 462.665 929.121 453.289C939.167 449.621 949.158 445.737 959.095 441.6C962.643 440.119 966.172 438.637 969.683 437.102C1033.18 409.497 1094.21 372.77 1154.69 331.85C1156.8 330.405 1158.94 328.942 1161.06 327.479C1202.14 299.314 1242.62 268.747 1283.25 237.655C1285.12 236.228 1447.98 110.292 1447.98 110.292V101.096C1447.98 101.096 1280.68 230.79 1278.82 232.218C1237.24 263.761 1196.06 294.996 1154.31 323.775C1152.19 325.22 1144.19 330.694 1142.31 331.959C1087.7 368.976 1032.22 401.874 974.951 427.437C971.801 428.846 968.67 430.219 965.539 431.574C952.796 437.066 940.017 442.196 927.076 446.93C899.563 456.974 872.359 464.688 845.643 470.271C843.072 470.813 840.466 471.318 837.896 471.806C740.643 489.944 650.233 479.358 576.492 440.697C573.687 439.216 570.881 437.698 568.112 436.144C557.197 430.02 546.645 423.318 536.527 415.965C515.911 401.024 496.761 383.519 478.624 364.821C477.285 363.448 475.982 362.056 474.66 360.684C458.262 343.467 442.496 325.6 427.147 308.04C419.056 298.79 400.106 277.418 398.893 276.063C394.078 270.734 389.245 265.495 384.376 260.346C323.125 195.526 268.68 165.356 217.728 166.928C164.296 168.482 111.117 206.691 71.3511 270.589C61.3598 286.668 52.4183 303.614 44.418 321.246C43.6215 322.98 42.8613 324.733 42.083 326.485C25.4851 363.881 12.3625 403.608 0 442.648V456.848Z" fill="#F9973A"/>
<path d="M0 239.245L62.6087 369.12C76.8355 398.658 93.1257 429.894 113.362 452.512C114.828 454.138 116.33 455.764 117.869 457.317C129.688 469.331 142.829 478.364 157.689 482.429C182.649 489.294 206.686 481.056 229.203 465.266C231.086 463.948 232.986 462.575 234.85 461.165C252.896 447.562 269.929 429.478 285.784 411.141C293.676 402.018 301.55 392.804 309.496 383.555C337.859 350.404 367.109 315.935 398.802 284.03C400.069 282.748 401.336 281.465 402.603 280.182C419.328 263.471 436.614 247.357 454.696 232.471C502.01 193.503 551.206 166.332 600.059 152.24C613.561 148.338 627.082 145.701 640.44 143.623C642.395 143.316 644.368 143.045 646.341 142.846C658.305 141.6 670.179 141.022 681.962 141.166C682.252 141.166 682.541 141.184 682.813 141.184C741.983 141.961 799.65 164.634 854.801 187.396C907.02 208.985 959.602 232.976 1012.89 258.503C1014.81 259.425 1016.74 260.346 1018.64 261.286C1061.47 282.278 1104.55 304.625 1147.95 328.201C1150.21 329.43 1152.46 330.676 1154.72 331.923C1251.7 385.271 1349.72 445.394 1448.02 512.418V503.692C1351.89 438.475 1255.97 379.761 1161.09 327.569C1158.83 326.322 1156.59 325.076 1154.32 323.847C1109.51 299.531 1064.91 276.605 1020.78 254.854C1018.84 253.897 1016.93 252.993 1015.02 252.072C961.792 226.437 909.12 202.698 856.883 181.2C801.007 158.22 742.489 136.108 682.161 134.789C670.197 134.536 658.124 135.24 645.997 136.577C643.97 136.794 641.961 137.065 639.933 137.354C577.234 146.568 512.888 177.117 451.89 227.448C433.464 242.642 415.889 259.1 398.911 276.118C397.644 277.4 396.359 278.683 395.11 279.966C363.67 311.996 334.456 346.177 306.22 379.201C298.328 388.451 290.454 397.664 282.599 406.787C265.766 426.262 247.466 445.322 228.334 459.124C226.38 460.533 224.389 461.906 222.397 463.207C202.017 476.467 180.495 482.953 158.377 476.919C145.49 473.414 134.032 466.133 123.588 456.324C121.923 454.77 120.312 453.144 118.719 451.464C98.0308 429.623 81.3967 397.899 66.1201 366.248L0 229.201V239.245Z" fill="#3C6381"/>
<path d="M193.021 452.422C193.256 456.83 190.668 460.497 187.247 460.587C183.844 460.696 180.894 457.209 180.658 452.801C180.423 448.411 182.993 444.744 186.396 444.635C189.817 444.509 192.785 447.995 193.021 452.422Z" fill="white"/>
<path d="M187.337 462.087C183.283 462.195 179.771 458.058 179.5 452.819C179.228 447.58 182.287 443.244 186.342 443.1C190.396 442.973 193.926 447.11 194.197 452.349C194.469 457.625 191.392 461.978 187.337 462.087ZM186.487 446.135C183.735 446.225 181.636 449.206 181.835 452.747C182.016 456.306 184.405 459.142 187.174 459.052C189.926 458.961 192.025 455.999 191.826 452.44C191.627 448.881 189.256 446.062 186.487 446.135Z" fill="#C42FE2"/>
<path d="M178.649 179.447C178.885 183.856 176.296 187.685 172.893 187.993C169.491 188.3 166.558 184.994 166.323 180.586C166.088 176.178 168.658 172.366 172.043 172.041C175.464 171.733 178.414 175.039 178.649 179.447Z" fill="white"/>
<path d="M172.984 189.528C168.948 189.89 165.436 185.933 165.165 180.712C164.893 175.491 167.934 170.92 171.97 170.541C176.007 170.162 179.536 174.1 179.808 179.339C180.097 184.578 177.02 189.149 172.984 189.528ZM172.151 173.558C169.4 173.811 167.318 176.918 167.518 180.495C167.699 184.054 170.088 186.746 172.839 186.493C175.59 186.24 177.672 183.133 177.473 179.556C177.292 175.997 174.902 173.305 172.151 173.558Z" fill="#F95ECC"/>
<path d="M292.518 406.516C292.753 411.033 290.056 414.809 286.472 414.953C282.906 415.098 279.829 411.557 279.594 407.04C279.359 402.542 282.056 398.766 285.622 398.622C289.187 398.459 292.264 402 292.518 406.516Z" fill="white"/>
<path d="M286.545 416.489C282.309 416.651 278.635 412.442 278.363 407.095C278.074 401.747 281.296 397.249 285.531 397.068C289.766 396.887 293.459 401.097 293.748 406.462C294.02 411.828 290.798 416.326 286.545 416.489ZM285.694 400.157C282.816 400.284 280.626 403.337 280.825 406.986C281.024 410.617 283.522 413.49 286.4 413.381C289.296 413.273 291.486 410.202 291.287 406.553C291.088 402.921 288.59 400.049 285.694 400.157Z" fill="#FF00FF"/>
<path d="M280.59 180.188C280.825 184.705 278.128 188.625 274.562 188.932C271.015 189.257 267.938 185.861 267.702 181.362C267.467 176.864 270.146 172.944 273.712 172.619C277.277 172.275 280.354 175.672 280.59 180.188Z" fill="white"/>
<path d="M274.653 190.486C270.435 190.865 266.779 186.818 266.49 181.471C266.2 176.123 269.404 171.444 273.639 171.065C277.875 170.668 281.549 174.714 281.839 180.08C282.11 185.445 278.888 190.106 274.653 190.486ZM273.802 174.154C270.924 174.425 268.752 177.605 268.933 181.254C269.132 184.885 271.612 187.649 274.49 187.396C277.368 187.144 279.558 183.946 279.359 180.315C279.178 176.647 276.68 173.883 273.802 174.154Z" fill="#F95ECC"/>
<path d="M406.459 280.742C406.694 285.367 403.87 289.306 400.124 289.54C396.395 289.775 393.173 286.234 392.938 281.628C392.702 277.021 395.526 273.083 399.255 272.83C402.983 272.577 406.223 276.118 406.459 280.742Z" fill="white"/>
<path d="M400.214 291.13C395.779 291.401 391.942 287.192 391.653 281.718C391.363 276.244 394.73 271.565 399.164 271.258C403.599 270.969 407.454 275.178 407.744 280.67C408.051 286.162 404.649 290.841 400.214 291.13ZM399.327 274.419C396.304 274.618 394.024 277.816 394.205 281.537C394.404 285.259 397.01 288.149 400.033 287.951C403.056 287.752 405.354 284.554 405.155 280.833C404.974 277.093 402.35 274.221 399.327 274.419Z" fill="#FF00FF"/>
<path d="M402.893 475.419C403.128 480.044 400.287 483.856 396.54 483.946C392.793 484.037 389.571 480.369 389.336 475.763C389.101 471.156 391.924 467.344 395.671 467.236C399.418 467.127 402.658 470.795 402.893 475.419Z" fill="white"/>
<path d="M396.63 485.518C392.196 485.626 388.34 481.236 388.051 475.763C387.761 470.289 391.146 465.736 395.58 465.628C400.033 465.501 403.888 469.873 404.178 475.365C404.486 480.875 401.083 485.428 396.63 485.518ZM395.743 468.807C392.721 468.879 390.422 471.987 390.621 475.708C390.82 479.43 393.426 482.411 396.467 482.357C399.508 482.284 401.807 479.177 401.608 475.437C401.409 471.716 398.784 468.735 395.743 468.807Z" fill="#C42FE2"/>
<path d="M397.988 382.2C398.223 386.825 395.381 390.691 391.653 390.853C387.924 391.016 384.702 387.403 384.449 382.796C384.213 378.189 387.037 374.305 390.766 374.143C394.512 373.98 397.734 377.575 397.988 382.2Z" fill="white"/>
<path d="M391.725 392.461C387.29 392.66 383.453 388.342 383.164 382.868C382.874 377.394 386.241 372.77 390.693 372.571C395.146 372.354 399.001 376.654 399.291 382.146C399.562 387.638 396.178 392.263 391.725 392.461ZM390.856 375.732C387.833 375.877 385.535 379.02 385.734 382.742C385.933 386.481 388.539 389.408 391.562 389.264C394.585 389.137 396.902 385.994 396.703 382.236C396.503 378.532 393.879 375.606 390.856 375.732Z" fill="#C42FE2"/>
<path d="M500.2 197.08C500.453 201.813 497.467 205.914 493.557 206.221C489.647 206.546 486.281 202.969 486.027 198.254C485.774 193.539 488.742 189.438 492.652 189.113C496.562 188.769 499.946 192.346 500.2 197.08Z" fill="white"/>
<path d="M493.63 207.847C488.978 208.226 484.96 203.981 484.67 198.362C484.38 192.762 487.91 187.866 492.562 187.469C497.213 187.071 501.25 191.335 501.557 196.953C501.847 202.59 498.299 207.468 493.63 207.847ZM492.725 190.721C489.557 190.992 487.15 194.316 487.349 198.146C487.548 201.957 490.281 204.866 493.449 204.595C496.616 204.342 499.042 201 498.842 197.188C498.643 193.358 495.91 190.45 492.725 190.721Z" fill="#FF00FF"/>
<path d="M505.865 304.661C506.118 309.395 503.132 313.423 499.204 313.64C495.294 313.875 491.91 310.244 491.674 305.511C491.421 300.795 494.389 296.767 498.317 296.532C502.227 296.279 505.611 299.928 505.865 304.661Z" fill="white"/>
<path d="M499.295 315.266C494.643 315.537 490.625 311.201 490.317 305.601C490.027 299.982 493.557 295.195 498.209 294.906C502.878 294.617 506.915 298.953 507.204 304.589C507.512 310.208 503.946 314.995 499.295 315.266ZM498.39 298.158C495.222 298.356 492.815 301.626 493.014 305.438C493.213 309.25 495.946 312.213 499.114 312.014C502.281 311.834 504.707 308.564 504.507 304.734C504.308 300.904 501.557 297.959 498.39 298.158Z" fill="#C42FE2"/>
<path d="M512.272 426.461C512.526 431.194 509.539 435.133 505.612 435.259C501.684 435.386 498.317 431.664 498.064 426.949C497.81 422.234 500.797 418.295 504.707 418.151C508.634 418.006 512.019 421.728 512.272 426.461Z" fill="white"/>
<path d="M505.684 436.885C501.032 437.03 496.996 432.603 496.706 427.003C496.417 421.385 499.965 416.706 504.616 416.525C509.286 416.362 513.322 420.788 513.63 426.407C513.92 432.043 510.354 436.74 505.684 436.885ZM504.797 419.777C501.63 419.885 499.204 423.101 499.403 426.913C499.603 430.725 502.336 433.76 505.521 433.651C508.707 433.543 511.114 430.345 510.915 426.515C510.716 422.685 507.965 419.668 504.797 419.777Z" fill="#C42FE2"/>
<path d="M510.299 389.065C510.553 393.798 507.566 397.773 503.639 397.917C499.711 398.08 496.344 394.376 496.091 389.661C495.837 384.946 498.806 380.971 502.734 380.809C506.661 380.646 510.046 384.332 510.299 389.065Z" fill="white"/>
<path d="M503.729 399.561C499.077 399.742 495.041 395.352 494.751 389.733C494.462 384.133 498.009 379.4 502.661 379.201C507.331 378.984 511.367 383.392 511.675 389.029C511.965 394.647 508.399 399.362 503.729 399.561ZM502.824 382.435C499.657 382.579 497.231 385.795 497.448 389.625C497.647 393.437 500.381 396.436 503.566 396.309C506.752 396.183 509.159 392.949 508.96 389.137C508.743 385.289 505.992 382.29 502.824 382.435Z" fill="#F95ECC"/>
<path d="M631.806 464.544C632.06 469.403 628.91 473.414 624.784 473.504C620.657 473.595 617.127 469.765 616.874 464.923C616.62 460.081 619.752 456.071 623.86 455.962C628.005 455.854 631.553 459.684 631.806 464.544Z" fill="white"/>
<path d="M624.892 475.166C620.005 475.275 615.77 470.704 615.462 464.959C615.154 459.214 618.901 454.427 623.788 454.282C628.693 454.138 632.947 458.726 633.236 464.489C633.544 470.271 629.797 475.04 624.892 475.166ZM623.969 457.624C620.639 457.715 618.087 460.985 618.304 464.887C618.503 468.789 621.381 471.915 624.729 471.824C628.06 471.752 630.612 468.482 630.413 464.562C630.178 460.641 627.3 457.534 623.969 457.624Z" fill="#F95ECC"/>
<path d="M740.715 186.042C740.969 191.01 737.675 195.327 733.349 195.671C729.023 196.014 725.312 192.274 725.059 187.306C724.805 182.338 728.081 178.038 732.407 177.677C736.715 177.316 740.444 181.055 740.715 186.042Z" fill="white"/>
<path d="M733.439 197.369C728.299 197.784 723.882 193.322 723.575 187.433C723.267 181.543 727.177 176.394 732.317 175.979C737.457 175.545 741.91 180.008 742.218 185.915C742.526 191.823 738.58 196.953 733.439 197.369ZM732.48 179.393C728.987 179.682 726.308 183.187 726.525 187.198C726.742 191.208 729.747 194.243 733.24 193.954C736.733 193.665 739.412 190.179 739.213 186.15C738.996 182.139 735.973 179.104 732.48 179.393Z" fill="#C42FE2"/>
<path d="M756.372 483.567C756.626 488.535 753.313 492.636 748.969 492.726C744.625 492.817 740.915 488.86 740.643 483.892C740.39 478.924 743.684 474.823 748.01 474.733C752.372 474.642 756.119 478.599 756.372 483.567Z" fill="white"/>
<path d="M749.06 494.443C743.919 494.533 739.467 489.836 739.159 483.946C738.851 478.057 742.779 473.161 747.938 473.053C753.096 472.926 757.567 477.641 757.875 483.549C758.182 489.456 754.218 494.334 749.06 494.443ZM748.119 476.449C744.607 476.521 741.928 479.864 742.146 483.874C742.363 487.885 745.385 491.1 748.879 491.028C752.39 490.956 755.069 487.632 754.87 483.603C754.653 479.574 751.63 476.377 748.119 476.449Z" fill="#F95ECC"/>
<path d="M886.676 488.372C886.947 493.485 883.454 497.676 878.874 497.767C874.313 497.857 870.404 493.792 870.132 488.698C869.861 483.603 873.336 479.394 877.915 479.303C882.476 479.213 886.404 483.26 886.676 488.372Z" fill="white"/>
<path d="M878.965 499.519C873.535 499.609 868.865 494.786 868.558 488.734C868.232 482.682 872.377 477.678 877.807 477.551C883.237 477.425 887.943 482.266 888.251 488.336C888.576 494.406 884.395 499.429 878.965 499.519ZM877.988 481.056C874.295 481.128 871.472 484.561 871.689 488.68C871.906 492.799 875.074 496.087 878.784 496.032C882.477 495.96 885.318 492.546 885.101 488.427C884.866 484.272 881.68 480.966 877.988 481.056Z" fill="#C42FE2"/>
<path d="M931.854 450.019C932.125 455.131 928.632 459.359 924.053 459.449C919.491 459.558 915.582 455.493 915.31 450.416C915.039 445.322 918.514 441.112 923.075 440.986C927.655 440.878 931.582 444.924 931.854 450.019Z" fill="white"/>
<path d="M924.143 461.202C918.713 461.328 914.062 456.504 913.736 450.452C913.41 444.4 917.555 439.378 922.985 439.234C928.415 439.089 933.103 443.913 933.429 449.983C933.755 456.053 929.592 461.093 924.143 461.202ZM923.184 442.738C919.492 442.829 916.668 446.261 916.885 450.38C917.102 454.499 920.27 457.787 923.98 457.697C927.673 457.606 930.515 454.174 930.297 450.055C930.062 445.936 926.877 442.648 923.184 442.738Z" fill="#F95ECC"/>
<path d="M1011.15 249.416C1011.42 254.655 1007.75 259.154 1002.93 259.461C998.137 259.768 994.01 255.775 993.739 250.554C993.467 245.315 997.123 240.817 1001.94 240.51C1006.75 240.185 1010.88 244.159 1011.15 249.416Z" fill="white"/>
<path d="M1003.02 261.267C997.304 261.629 992.417 256.877 992.091 250.663C991.766 244.448 996.128 239.083 1001.85 238.703C1007.57 238.324 1012.49 243.075 1012.82 249.308C1013.14 255.541 1008.74 260.906 1003.02 261.267ZM1002.03 242.298C998.137 242.551 995.168 246.201 995.386 250.446C995.603 254.673 998.951 257.907 1002.82 257.654C1006.72 257.401 1009.7 253.752 1009.49 249.525C1009.27 245.279 1005.92 242.045 1002.03 242.298Z" fill="#FF00FF"/>
<path d="M1014.08 305.222C1014.35 310.461 1010.68 314.923 1005.87 315.176C1001.05 315.429 996.942 311.382 996.671 306.161C996.399 300.94 1000.06 296.478 1004.87 296.207C1009.68 295.954 1013.81 299.982 1014.08 305.222Z" fill="white"/>
<path d="M1005.96 316.982C1000.24 317.289 995.349 312.484 995.005 306.269C994.68 300.055 999.042 294.743 1004.76 294.436C1010.48 294.111 1015.4 298.917 1015.73 305.149C1016.07 311.382 1011.68 316.675 1005.96 316.982ZM1004.96 298.031C1001.07 298.248 998.101 301.861 998.318 306.089C998.535 310.316 1001.88 313.586 1005.78 313.369C1009.67 313.17 1012.65 309.539 1012.44 305.312C1012.2 301.084 1008.85 297.815 1004.96 298.031Z" fill="#C42FE2"/>
<path d="M1019.8 413.634C1020.07 418.873 1016.38 423.245 1011.57 423.408C1006.75 423.552 1002.64 419.452 1002.35 414.23C1002.08 409.009 1005.76 404.638 1010.55 404.457C1015.39 404.276 1019.51 408.377 1019.8 413.634Z" fill="white"/>
<path d="M1011.66 425.196C1005.94 425.377 1001.03 420.481 1000.71 414.267C1000.38 408.052 1004.76 402.849 1010.48 402.632C1016.2 402.433 1021.14 407.329 1021.47 413.562C1021.79 419.795 1017.38 425.016 1011.66 425.196ZM1010.66 406.245C1006.77 406.39 1003.78 409.931 1004.02 414.158C1004.24 418.386 1007.59 421.728 1011.48 421.601C1015.37 421.475 1018.36 417.934 1018.14 413.688C1017.9 409.443 1014.55 406.101 1010.66 406.245Z" fill="#F95ECC"/>
<path d="M1317.52 416.633C1317.8 422.179 1313.68 426.804 1308.28 426.949C1302.91 427.111 1298.31 422.758 1298.02 417.229C1297.73 411.701 1301.84 407.076 1307.23 406.896C1312.61 406.733 1317.23 411.087 1317.52 416.633Z" fill="white"/>
<path d="M1308.37 428.846C1301.99 429.026 1296.54 423.86 1296.19 417.302C1295.85 410.744 1300.74 405.234 1307.13 405.017C1313.53 404.8 1319.02 409.985 1319.36 416.579C1319.71 423.173 1314.78 428.665 1308.37 428.846ZM1307.33 408.829C1302.98 408.973 1299.63 412.731 1299.87 417.193C1300.1 421.656 1303.83 425.196 1308.18 425.07C1312.52 424.943 1315.89 421.186 1315.65 416.706C1315.42 412.225 1311.67 408.684 1307.33 408.829Z" fill="#FF00FF"/>
<path d="M1237.19 275.341C1237.48 280.887 1233.35 285.674 1227.97 286.036C1222.6 286.397 1218.02 282.206 1217.73 276.678C1217.44 271.149 1221.55 266.38 1226.91 266.001C1232.3 265.621 1236.9 269.795 1237.19 275.341Z" fill="white"/>
<path d="M1228.08 287.933C1221.71 288.348 1216.26 283.38 1215.92 276.822C1215.58 270.264 1220.46 264.555 1226.83 264.104C1233.22 263.652 1238.71 268.638 1239.05 275.232C1239.38 281.808 1234.47 287.499 1228.08 287.933ZM1227.01 267.898C1222.67 268.205 1219.34 272.089 1219.58 276.569C1219.81 281.031 1223.54 284.428 1227.87 284.139C1232.21 283.85 1235.56 279.966 1235.32 275.485C1235.11 270.987 1231.36 267.59 1227.01 267.898Z" fill="#C42FE2"/>
<path d="M680.75 342.636C671.645 352.554 663.084 363.339 654.685 373.962C631.969 402.741 608.53 431.538 576.51 440.733C576.166 440.823 575.804 440.932 575.442 441.022C572.745 441.654 570.085 442.214 567.424 442.576C535.368 446.966 504.109 429.984 474.19 413.689C469.266 411.015 456.216 404.078 454.623 403.265C431.075 391.269 407.291 382.073 383.815 386.409C353.678 391.973 331.669 417.428 308.591 444.075C299.016 455.113 289.386 466.26 279.087 475.871C277.476 477.37 275.866 478.834 274.218 480.261C263.648 489.348 252.39 496.629 239.918 500.332C216.624 507.233 192.55 500.729 169.527 494.497C157.291 491.173 144.729 487.776 132.548 486.439C78.917 480.64 28.0372 516.23 5.06803 574.33C5.04993 574.348 2.08149 581.267 0.0180664 586V574.853C0.850677 572.902 1.44798 571.511 1.48418 571.475C25.1412 511.641 77.4689 474.95 132.693 480.821C145.164 482.14 157.852 485.572 170.251 488.896C193.853 495.256 216.388 501.344 238.688 494.695C249.258 491.552 258.96 485.681 268.119 478.256C269.802 476.883 271.467 475.455 273.132 473.938C284.427 463.911 294.943 451.735 305.351 439.685C327.886 413.634 351.434 386.391 383.001 380.52C408.033 375.841 432.885 385.614 457.375 398.188C458.967 398.965 460.524 399.796 462.117 400.627C466.805 403.102 471.493 405.631 476.145 408.16C503.892 423.191 530.59 437.716 558.03 437.12C561.415 437.048 564.763 436.759 568.148 436.18C570.175 435.873 572.184 435.458 574.212 434.934C605.326 427.057 627.245 399.29 650.667 369.608C658.179 360.105 665.799 350.44 673.871 341.389L675.247 342.672L680.75 342.636Z" fill="url(#paint3_linear_34_705)"/>
<path d="M878.386 330.803C878.657 335.915 875.164 340.215 870.602 340.45C866.041 340.667 862.132 336.728 861.878 331.652C861.607 326.557 865.082 322.239 869.643 321.987C874.186 321.752 878.114 325.69 878.386 330.803Z" fill="white"/>
<path d="M870.675 342.202C865.263 342.473 860.593 337.758 860.286 331.724C859.96 325.672 864.105 320.523 869.517 320.234C874.947 319.945 879.635 324.66 879.942 330.73C880.268 336.782 876.105 341.931 870.675 342.202ZM869.716 323.739C866.023 323.938 863.2 327.442 863.417 331.561C863.634 335.68 866.802 338.878 870.494 338.697C874.186 338.517 877.01 335.012 876.793 330.893C876.576 326.738 873.39 323.54 869.716 323.739Z" fill="#C42FE2"/>
<path d="M628.874 408.576C629.128 413.436 625.978 417.482 621.869 417.627C617.743 417.771 614.213 413.978 613.96 409.136C613.706 404.294 616.838 400.248 620.946 400.085C625.055 399.94 628.621 403.734 628.874 408.576Z" fill="white"/>
<path d="M621.942 419.289C617.055 419.47 612.82 414.935 612.53 409.19C612.222 403.445 615.951 398.622 620.856 398.423C625.761 398.224 629.997 402.759 630.304 408.522C630.594 414.285 626.847 419.126 621.942 419.289ZM621.019 401.765C617.689 401.892 615.154 405.18 615.354 409.082C615.553 413.002 618.431 416.073 621.761 415.965C625.092 415.838 627.644 412.55 627.445 408.63C627.245 404.71 624.349 401.639 621.019 401.765Z" fill="#C42FE2"/>
<path d="M675.229 342.672L673.853 341.389C665.799 350.458 658.16 360.087 650.649 369.608C649.436 371.144 648.223 372.679 647.011 374.215C648.604 375.389 650.287 376.401 652.043 377.286C652.93 376.184 653.798 375.064 654.685 373.944C663.084 363.321 671.645 352.518 680.75 342.618L675.229 342.672Z" fill="url(#paint4_linear_34_705)"/>
<path d="M195.338 496.592C195.573 501 192.985 504.632 189.564 504.704C186.161 504.776 183.21 501.253 182.975 496.863C182.74 492.455 185.31 488.824 188.731 488.752C192.152 488.661 195.12 492.184 195.338 496.592Z" fill="white"/>
<path d="M189.654 506.221C185.6 506.294 182.088 502.102 181.817 496.881C181.545 491.66 184.604 487.325 188.659 487.234C192.713 487.144 196.243 491.335 196.514 496.574C196.804 501.813 193.709 506.131 189.654 506.221ZM188.822 490.251C186.07 490.305 183.971 493.268 184.17 496.827C184.351 500.386 186.758 503.241 189.509 503.186C192.261 503.132 194.36 500.188 194.179 496.61C193.98 493.052 191.573 490.197 188.822 490.251Z" fill="#FF00FF"/>
<path d="M295.432 462.051C295.667 466.567 292.952 470.307 289.387 470.397C285.821 470.487 282.744 466.91 282.508 462.412C282.273 457.914 284.97 454.174 288.536 454.066C292.102 453.957 295.197 457.534 295.432 462.051Z" fill="white"/>
<path d="M289.477 471.933C285.242 472.041 281.567 467.778 281.296 462.448C281.006 457.101 284.228 452.638 288.463 452.512C292.717 452.385 296.409 456.649 296.681 462.015C296.952 467.38 293.712 471.824 289.477 471.933ZM288.608 455.619C285.73 455.71 283.54 458.727 283.721 462.376C283.92 466.007 286.418 468.916 289.296 468.843C292.192 468.771 294.382 465.736 294.183 462.087C294.002 458.419 291.504 455.529 288.608 455.619Z" fill="#C42FE2"/>
</g>
<defs>
<linearGradient id="paint0_linear_34_705" x1="425.519" y1="119.876" x2="615.027" y2="119.876" gradientUnits="userSpaceOnUse">
<stop/>
<stop offset="0.0342" stop-color="#0C010E"/>
<stop offset="0.1664" stop-color="#370640"/>
<stop offset="0.3016" stop-color="#5B0A6B"/>
<stop offset="0.4375" stop-color="#790D8E"/>
<stop offset="0.5745" stop-color="#9010A9"/>
<stop offset="0.7128" stop-color="#A112BD"/>
<stop offset="0.8535" stop-color="#AB13C8"/>
<stop offset="1" stop-color="#AE13CC"/>
</linearGradient>
<linearGradient id="paint1_linear_34_705" x1="1143" y1="422.553" x2="1273.51" y2="422.553" gradientUnits="userSpaceOnUse">
<stop/>
<stop offset="0.1345" stop-color="#0B0005"/>
<stop offset="0.3714" stop-color="#280014"/>
<stop offset="0.6825" stop-color="#58002C"/>
<stop offset="1" stop-color="#900047"/>
</linearGradient>
<linearGradient id="paint2_linear_34_705" x1="1390.57" y1="137.921" x2="817.338" y2="364.249" gradientUnits="userSpaceOnUse">
<stop stop-color="#CAE9FF"/>
<stop offset="0.0786" stop-color="#D1ECFF"/>
<stop offset="0.429" stop-color="#EAF6FF"/>
<stop offset="0.7465" stop-color="#FAFDFF"/>
<stop offset="1" stop-color="white"/>
</linearGradient>
<linearGradient id="paint3_linear_34_705" x1="591.766" y1="360.992" x2="59.9644" y2="570.963" gradientUnits="userSpaceOnUse">
<stop stop-color="#CAE9FF"/>
<stop offset="0.0654" stop-color="#D6EEFF"/>
<stop offset="0.1986" stop-color="#E8F6FF"/>
<stop offset="0.3573" stop-color="#F5FBFF"/>
<stop offset="0.5643" stop-color="#FDFEFF"/>
<stop offset="1" stop-color="white"/>
</linearGradient>
<linearGradient id="paint4_linear_34_705" x1="671.751" y1="349.481" x2="654.546" y2="368.833" gradientUnits="userSpaceOnUse">
<stop stop-color="#B284FF"/>
<stop offset="0.2174" stop-color="#CCADFF"/>
<stop offset="0.443" stop-color="#E2D1FF"/>
<stop offset="0.6553" stop-color="#F2EAFF"/>
<stop offset="0.847" stop-color="#FCFAFF"/>
<stop offset="1" stop-color="white"/>
</linearGradient>
<clipPath id="clip0_34_705">
<rect width="1448" height="586" fill="white"/>
</clipPath>
</defs>
</svg>
