<svg width="300" height="249" viewBox="0 0 300 249" fill="none" xmlns="http://www.w3.org/2000/svg">
<path fill-rule="evenodd" clip-rule="evenodd" d="M282.061 209.279L297.636 206.813L297.635 206.814L299.415 222.482L294.816 228.526L293.68 218.521C287.727 224.942 280.596 230.179 272.664 233.94C263.63 238.224 253.773 240.491 243.775 240.586C233.778 240.68 223.879 238.599 214.766 234.487C205.653 230.374 197.544 224.329 191 216.77L197.012 211.566C202.801 218.253 209.975 223.601 218.037 227.239C226.099 230.877 234.856 232.718 243.7 232.635C252.545 232.551 261.265 230.545 269.257 226.755C275.999 223.558 282.086 219.157 287.225 213.778L277.463 215.324L282.061 209.279ZM292.659 212.918L293.084 213.271L293.037 212.858L293.037 212.858L292.659 212.918Z" fill="#4F66C4"/>
<circle cx="125.206" cy="124.763" r="117.5" stroke="#979797" stroke-dasharray="15 15"/>
<path d="M124.75 0.965272C141.006 0.965273 157.102 4.16706 172.121 10.3878C187.139 16.6086 200.785 25.7265 212.279 37.2209C223.774 48.7153 232.891 62.3613 239.112 77.3795C245.333 92.3977 248.535 108.494 248.535 124.75C248.535 141.005 245.333 157.102 239.112 172.12C232.891 187.138 223.774 200.784 212.279 212.279C200.785 223.773 187.139 232.891 172.121 239.112C157.102 245.332 141.006 248.534 124.75 248.534L124.75 237.493C139.556 237.493 154.217 234.577 167.895 228.911C181.574 223.245 194.003 214.94 204.472 204.471C214.941 194.002 223.246 181.573 228.911 167.895C234.577 154.216 237.494 139.555 237.494 124.75C237.494 109.944 234.577 95.2834 228.911 81.6047C223.246 67.9261 214.941 55.4974 204.472 45.0282C194.003 34.559 181.574 26.2544 167.895 20.5885C154.217 14.9226 139.556 12.0064 124.75 12.0064L124.75 0.965272Z" fill="#5066C5"/>
</svg>
