<svg width="307" height="249" viewBox="0 0 307 249" fill="none" xmlns="http://www.w3.org/2000/svg">
<path fill-rule="evenodd" clip-rule="evenodd" d="M289.641 209.279L305.215 206.813L305.215 206.814L306.994 222.482L302.396 228.526L301.26 218.521C295.306 224.942 288.176 230.179 280.244 233.94C271.21 238.224 261.353 240.491 251.355 240.586C241.357 240.68 231.459 238.599 222.346 234.487C213.233 230.374 205.123 224.329 198.58 216.77L204.591 211.566C210.38 218.253 217.555 223.601 225.617 227.239C233.679 230.877 242.435 232.718 251.28 232.635C260.124 232.551 268.845 230.545 276.837 226.755C283.579 223.558 289.666 219.157 294.804 213.778L285.043 215.324L289.641 209.279ZM300.239 212.918L300.663 213.271L300.617 212.858L300.617 212.858L300.239 212.918Z" fill="#4F66C4"/>
<circle cx="125.206" cy="122.763" r="117.5" stroke="#979797" stroke-dasharray="15 15"/>
<path d="M124.75 0.964777C149.233 0.964776 173.165 8.2246 193.521 21.8262C213.877 35.4278 229.743 54.7603 239.112 77.379C248.481 99.9976 250.932 124.887 246.156 148.898C241.38 172.91 229.591 194.966 212.279 212.278C194.968 229.59 172.911 241.379 148.899 246.155C124.888 250.931 99.9987 248.48 77.38 239.111C54.7614 229.742 35.4289 213.876 21.8273 193.52C8.22565 173.164 0.965816 149.231 0.965815 124.749L12.007 124.749C12.007 147.048 18.6193 168.846 31.0077 187.386C43.396 205.927 61.0041 220.377 81.6053 228.91C102.206 237.444 124.875 239.676 146.745 235.326C168.615 230.976 188.704 220.238 204.472 204.471C220.239 188.703 230.977 168.614 235.327 146.744C239.677 124.874 237.445 102.205 228.911 81.6042C220.378 61.0031 205.928 43.395 187.387 31.0066C168.847 18.6182 147.049 12.0059 124.75 12.0059L124.75 0.964777Z" fill="#4F66C4"/>
</svg>
