<svg width="297" height="249" viewBox="0 0 297 249" fill="none" xmlns="http://www.w3.org/2000/svg">
<path fill-rule="evenodd" clip-rule="evenodd" d="M200.022 222.682C190.49 215.715 182.908 206.417 178 195.679L185.232 192.374C189.574 201.874 196.282 210.099 204.714 216.262C213.146 222.426 223.02 226.321 233.389 227.574C243.758 228.827 254.276 227.396 263.933 223.419C271.831 220.166 278.938 215.3 284.81 209.154L275.047 210.7L279.645 204.655L295.22 202.189L295.22 202.189L295.22 202.189L295.221 202.189L295.22 202.19L297 217.858L292.401 223.902L291.265 213.897C284.495 221.199 276.208 226.964 266.961 230.772C256.045 235.267 244.156 236.885 232.435 235.468C220.714 234.052 209.553 229.649 200.022 222.682Z" fill="#5066C5"/>
<circle cx="125.206" cy="122.763" r="117.5" stroke="#979797" stroke-dasharray="15 15"/>
<path d="M124.751 0.963808C142.471 0.963808 159.986 4.76863 176.109 12.121C192.233 19.4734 206.59 30.202 218.209 43.5814C229.829 56.9608 238.441 72.6791 243.462 89.6736C248.483 106.668 249.797 124.543 247.314 142.089L236.382 140.542C238.643 124.561 237.446 108.281 232.873 92.8021C228.3 77.3235 220.456 63.0072 209.873 50.8212C199.29 38.6352 186.213 28.8636 171.528 22.167C156.843 15.4704 140.891 12.005 124.751 12.005L124.751 0.963808Z" fill="#4F66C4"/>
</svg>
