<svg width="142" height="166" viewBox="0 0 142 166" fill="none" xmlns="http://www.w3.org/2000/svg">
<mask id="path-1-inside-1_109_558" fill="white">
<path fill-rule="evenodd" clip-rule="evenodd" d="M3.47656 31.2555C30.1329 30.9673 53.9621 18.8941 70 0C86.2335 19.1245 110.449 31.2607 137.5 31.2607C137.842 31.2607 138.183 31.2588 138.523 31.2549C140.795 40.2236 142 49.6042 142 59.2603C142 106.79 112.798 147.643 70.9994 165.565C29.2012 147.643 0 106.79 0 59.2608C0 49.6047 1.20526 40.2241 3.47656 31.2555Z"/>
</mask>
<path d="M70 0L79.1486 -7.76557L70 -18.5434L60.8514 -7.76556L70 0ZM3.47656 31.2555L3.34682 19.2562L-5.88877 19.356L-8.15621 28.3095L3.47656 31.2555ZM138.523 31.2549L150.156 28.309L147.836 19.1486L138.387 19.2557L138.523 31.2549ZM70.9994 165.565L66.2704 176.594L70.9994 178.622L75.7284 176.594L70.9994 165.565ZM60.8514 -7.76556C46.9694 8.58871 26.3815 19.0071 3.34682 19.2562L3.60629 43.2548C33.8843 42.9274 60.9548 29.1994 79.1486 7.76556L60.8514 -7.76556ZM137.5 19.2607C114.121 19.2607 93.1994 8.78764 79.1486 -7.76557L60.8514 7.76557C79.2675 29.4614 106.778 43.2607 137.5 43.2607V19.2607ZM138.387 19.2557C138.092 19.2591 137.796 19.2607 137.5 19.2607V43.2607C137.887 43.2607 138.273 43.2585 138.659 43.2542L138.387 19.2557ZM154 59.2603C154 48.6017 152.669 38.2318 150.156 28.309L126.891 34.2009C128.92 42.2154 130 50.6067 130 59.2603H154ZM75.7284 176.594C121.672 156.895 154 111.873 154 59.2603H130C130 101.707 103.924 138.392 66.2705 154.537L75.7284 176.594ZM-12 59.2608C-12 111.873 20.3271 156.894 66.2704 176.594L75.7285 154.537C38.0753 138.391 12 101.708 12 59.2608H-12ZM-8.15621 28.3095C-10.6691 38.2323 -12 48.6022 -12 59.2608H12C12 50.6072 13.0797 42.216 15.1093 34.2014L-8.15621 28.3095Z" fill="url(#paint0_linear_109_558)" mask="url(#path-1-inside-1_109_558)"/>
<line x1="47.0635" y1="78.8758" x2="66.5038" y2="100.197" stroke="url(#paint1_linear_109_558)" stroke-width="10" stroke-linecap="round"/>
<line x1="67.0225" y1="100.19" x2="97.9514" y2="69.2607" stroke="url(#paint2_linear_109_558)" stroke-width="10" stroke-linecap="round"/>
<defs>
<linearGradient id="paint0_linear_109_558" x1="71" y1="0" x2="71" y2="165.565" gradientUnits="userSpaceOnUse">
<stop stop-color="#5066C5"/>
<stop offset="1" stop-color="#364689"/>
</linearGradient>
<linearGradient id="paint1_linear_109_558" x1="53.0889" y1="92.9054" x2="52.3499" y2="93.5791" gradientUnits="userSpaceOnUse">
<stop stop-color="#5066C5"/>
<stop offset="1" stop-color="#364689"/>
</linearGradient>
<linearGradient id="paint2_linear_109_558" x1="86.0225" y1="88.2607" x2="86.7296" y2="88.9678" gradientUnits="userSpaceOnUse">
<stop stop-color="#5066C5"/>
<stop offset="1" stop-color="#364689"/>
</linearGradient>
</defs>
</svg>
