<svg width="139" height="156" viewBox="0 0 139 156" fill="none" xmlns="http://www.w3.org/2000/svg">
<path d="M116.97 100.53C114.351 109.39 109.305 117.341 102.403 123.482C95.5002 129.623 87.0167 133.71 77.9121 135.28C68.8075 136.85 59.4452 135.841 50.8844 132.366C42.3237 128.892 34.9062 123.091 29.4712 115.619C24.0361 108.148 20.8005 99.305 20.1304 90.0903C19.4603 80.8757 21.3824 71.6574 25.6793 63.4784C29.9762 55.2994 36.4763 48.4862 44.4443 43.8097C52.4123 39.1331 61.5301 36.7799 70.766 37.0162L69.5 86.5L116.97 100.53Z" fill="url(#paint0_linear_109_557)"/>
<path fill-rule="evenodd" clip-rule="evenodd" d="M56 0C54.3431 0 53 1.34315 53 3V12C53 13.6569 54.3431 15 56 15H62V17.4C27.1435 21.14 0 50.6502 0 86.5C0 124.884 31.1162 156 69.5 156C107.884 156 139 124.884 139 86.5C139 50.6502 111.857 21.14 77 17.4V15H83C84.6569 15 86 13.6569 86 12V3C86 1.34315 84.6569 0 83 0H56ZM69.5 146C102.361 146 129 119.361 129 86.5C129 53.6391 102.361 27 69.5 27C36.6391 27 10 53.6391 10 86.5C10 119.361 36.6391 146 69.5 146Z" fill="url(#paint1_linear_109_557)"/>
<defs>
<linearGradient id="paint0_linear_109_557" x1="69.5" y1="37" x2="69.5" y2="136" gradientUnits="userSpaceOnUse">
<stop stop-color="#5066C5"/>
<stop offset="1" stop-color="#364689"/>
</linearGradient>
<linearGradient id="paint1_linear_109_557" x1="69.5" y1="0" x2="69.5" y2="156" gradientUnits="userSpaceOnUse">
<stop stop-color="#5066C5"/>
<stop offset="1" stop-color="#364689"/>
</linearGradient>
</defs>
</svg>
