<svg width="145" height="92" viewBox="0 0 145 92" fill="none" xmlns="http://www.w3.org/2000/svg">
<g clip-path="url(#clip0_117_148)">
<path d="M88.1427 85.5947C86.0342 88.7082 83.4206 90.5516 79.6709 90.416C75.148 90.2543 70.9263 88.858 66.4556 87.4166C69.0598 84.5576 69.8306 81.4774 68.2107 78.0856C66.6335 74.7818 63.9037 73.1382 60.1374 72.9883C60.4267 70.36 59.8267 68.0029 58.138 66.0002C56.4683 64.0188 54.3029 63.0056 51.6324 62.8819C51.9763 58.0487 50.0077 54.6664 45.5038 52.9966C43.6966 52.3259 41.7209 52.4091 40.139 53.5199C38.6591 54.5593 37.4708 56.0174 36.0976 57.3446C34.9853 54.8162 33.3037 52.666 30.3509 51.8692C27.3815 51.0676 24.8129 51.7146 22.612 54.1074C22.1258 53.508 21.6894 52.9657 21.2459 52.4258C19.9153 50.8036 18.554 49.2052 17.2732 47.5426C17.0313 47.2286 16.8866 46.5531 17.055 46.2463C22.9725 35.6237 28.935 25.0225 34.8928 14.4189C34.9853 14.2548 35.1228 14.1168 35.3766 13.7886C39.603 17.423 44.8872 17.7893 50.2473 18.6075C49.8986 19.1379 49.652 19.5114 49.4077 19.8872C47.0716 23.4669 44.6903 27.0205 42.4182 30.6406C41.4197 32.2295 41.2419 34.0824 41.4102 35.9281C41.5905 37.9261 42.9495 39.3366 45.0105 39.6054C49.4741 40.1857 53.442 38.7967 57.0897 36.3301C59.8717 34.4487 62.1391 32.0344 64.1906 29.3824C64.6816 28.7473 65.4714 28.3049 66.1948 27.9005C69.0835 26.2879 71.6307 27.0228 74.427 28.5903C82.1256 32.9026 89.8811 37.1055 96.9773 42.3907C103.307 47.1049 109.602 51.8739 115.861 56.6834C118.124 58.4197 118.83 60.6056 118.098 62.7154C116.954 66.0168 113.081 67.3702 109.989 65.5149C103.239 61.4666 96.503 57.3969 89.7602 53.3344C89.2526 53.0275 88.7403 52.7278 88.2281 52.4281C87.3956 51.9405 86.6248 51.9667 86.0461 52.8087C85.529 53.5603 85.8113 54.3762 86.7671 54.9946C87.4312 55.4251 88.1166 55.82 88.7949 56.2267C94.8618 59.8754 100.917 63.5455 107.007 67.1538C107.925 67.6984 108.234 68.3454 108.205 69.3587C108.117 72.5697 106.497 74.4393 103.336 74.9055C101.733 75.1433 100.298 74.9649 98.8225 74.0753C93.6095 70.9285 88.3087 67.9244 83.0411 64.8656C82.7328 64.6872 82.4197 64.5207 82.1161 64.3352C81.2528 63.8071 80.4512 63.8 79.8345 64.692C79.3033 65.4626 79.6282 66.3118 80.6812 66.9278C83.9589 68.8449 87.2438 70.7454 90.5286 72.6506C92.8885 74.0206 95.2365 75.4121 97.6201 76.7393C98.315 77.127 98.5403 77.5599 98.4288 78.3544C97.9189 82.0483 96.3014 83.561 92.5873 83.4088C91.252 83.3541 89.8456 83.0187 88.6289 82.4645C84.5305 80.5926 80.5033 78.5661 76.4477 76.599C76.0564 76.4087 75.6674 76.2042 75.2595 76.0614C74.427 75.7689 73.7511 76.0258 73.3787 76.8202C73.0253 77.5766 73.2791 78.2545 73.9811 78.6588C74.8349 79.1512 75.7409 79.5555 76.6303 79.9884C80.0456 81.6439 83.4633 83.2922 86.8809 84.9453C87.2746 85.1356 87.6541 85.3425 88.1427 85.5947Z" fill="url(#paint0_linear_117_148)"/>
<path d="M79.0472 11.1886C84.0966 10.7224 91.022 12.4207 97.938 14.1024C101.486 14.9634 104.973 15.0585 108.428 13.7765C109.17 13.5006 109.54 13.7028 109.925 14.3878C115.683 24.6893 121.473 34.9718 127.224 45.278C127.397 45.5896 127.411 46.2746 127.203 46.4721C124.971 48.5937 122.753 50.7416 120.382 52.7015C118.029 54.6424 117.996 54.4973 115.622 52.642C112.076 49.871 108.442 47.2142 104.885 44.4574C94.8737 36.701 84.0634 30.2503 72.8357 24.4514C71.268 23.6427 69.9374 23.569 68.2488 24.0423C65.009 24.9486 62.3716 26.3067 60.3272 29.2442C58.0243 32.5552 54.7299 34.9694 50.7549 36.1087C49.2963 36.5273 47.731 36.6724 46.2036 36.7343C44.6193 36.8009 44.1189 36.1991 44.3465 34.6031C44.4888 33.6041 44.6999 32.51 45.2312 31.687C48.0014 27.4008 50.8806 23.1837 53.7338 18.9522C54.3528 18.0341 55.1094 17.2016 55.6668 16.2478C56.6226 14.6066 58.1097 13.855 59.8458 13.3888C65.4288 11.8832 71.1518 11.6144 79.0472 11.1886Z" fill="url(#paint1_linear_117_148)"/>
<path d="M11.3723 49.6378C10.9051 49.4142 10.573 49.2881 10.2742 49.1074C7.13405 47.1926 4.00575 45.2565 0.8561 43.3584C-0.0925887 42.7876 -0.220662 42.1382 0.315348 41.1892C7.85268 27.7955 15.3829 14.3972 22.8918 0.98689C23.4373 0.0116834 23.9899 -0.209522 24.967 0.399387C28.0194 2.30699 31.1051 4.1575 34.1717 6.04131C35.4785 6.84288 35.5544 7.16875 34.7931 8.52452C28.1024 20.4411 21.4094 32.3576 14.7188 44.2742C13.9053 45.7251 13.1132 47.1879 12.2712 48.6221C12.053 49.0003 11.6854 49.2905 11.3723 49.6378Z" fill="url(#paint2_linear_117_148)"/>
<path d="M145 42.3214C144.618 42.683 144.288 43.1159 143.854 43.3846C140.8 45.2875 137.726 47.1594 134.65 49.0313C133.407 49.7877 133.137 49.7187 132.42 48.4438C129.254 42.8162 126.095 37.1838 122.934 31.5537C118.648 23.9209 114.362 16.2858 110.076 8.6554C109.237 7.15929 109.298 6.86673 110.722 5.9938C113.722 4.15518 116.724 2.31656 119.734 0.48983C120.982 -0.268929 121.223 -0.207086 121.949 1.08685C129.463 14.4496 136.972 27.8146 144.476 41.1821C144.647 41.4865 144.77 41.8195 145 42.3214Z" fill="url(#paint3_linear_117_148)"/>
<path d="M49.0234 61.0501C48.5467 62.1537 48.3048 63.1432 47.7569 63.9115C44.7662 68.1001 41.7019 72.2388 38.6543 76.3869C37.3783 78.1233 35.6066 78.6608 33.6357 77.8617C30.2204 76.4773 28.9112 72.3149 31.1217 69.5581C34.1409 65.7929 36.8636 61.7898 39.7168 57.8937C41.8253 55.0157 44.9797 54.8468 47.2613 57.6297C48.0487 58.5906 48.4376 59.8798 49.0234 61.0501Z" fill="url(#paint4_linear_117_148)"/>
<path d="M52.1045 65.917C54.0612 66.0121 55.6336 67.1562 56.6369 69.0781C57.5784 70.8787 57.4764 72.6198 56.2171 74.3109C53.8785 77.453 51.5922 80.6378 49.3106 83.8227C48.3927 85.1048 47.1879 85.6542 45.6368 85.5163C42.0768 85.1999 39.1146 80.5927 41.6452 77.2389C44.1236 73.9517 46.5333 70.617 48.9596 67.2918C49.683 66.3047 50.6672 65.9313 52.1045 65.917Z" fill="url(#paint5_linear_117_148)"/>
<path d="M52.0784 85.937C52.2444 85.5493 52.4412 84.7644 52.8705 84.1412C54.3742 81.9601 55.9609 79.8336 57.5144 77.6834C58.565 76.2277 59.9809 75.8186 61.6886 76.1612C65.0019 76.8271 67.6867 81.3464 64.945 84.6026C63.4697 86.3532 62.2127 88.2894 60.8324 90.1232C59.3264 92.1236 57.2748 92.5494 55.0999 91.284C53.2168 90.1922 52.2017 88.5391 52.0784 85.937Z" fill="url(#paint6_linear_117_148)"/>
<path d="M21.1201 62.4322C21.4237 61.6354 21.5992 60.7554 22.0546 60.0561C23.0009 58.6004 23.997 57.1518 25.1639 55.8793C25.7806 55.2062 26.7672 54.6092 27.6495 54.4998C29.9097 54.2215 31.6055 55.3727 32.725 57.2922C33.7851 59.1141 33.8729 60.9575 32.5139 62.7272C31.551 63.9807 30.6046 65.2461 29.6749 66.5257C28.7879 67.7435 27.5759 68.1479 26.1458 67.9743C23.5132 67.6531 21.3193 65.1581 21.1201 62.4322Z" fill="url(#paint7_linear_117_148)"/>
</g>
<defs>
<linearGradient id="paint0_linear_117_148" x1="67.6788" y1="13.7886" x2="67.6788" y2="90.423" gradientUnits="userSpaceOnUse">
<stop stop-color="#5066C5"/>
<stop offset="1" stop-color="#364689"/>
</linearGradient>
<linearGradient id="paint1_linear_117_148" x1="85.8255" y1="11.1104" x2="85.8255" y2="54.0964" gradientUnits="userSpaceOnUse">
<stop stop-color="#5066C5"/>
<stop offset="1" stop-color="#364689"/>
</linearGradient>
<linearGradient id="paint2_linear_117_148" x1="17.6404" y1="0.0605469" x2="17.6404" y2="49.6378" gradientUnits="userSpaceOnUse">
<stop stop-color="#5066C5"/>
<stop offset="1" stop-color="#364689"/>
</linearGradient>
<linearGradient id="paint3_linear_117_148" x1="127.265" y1="-0.00146484" x2="127.265" y2="49.5194" gradientUnits="userSpaceOnUse">
<stop stop-color="#5066C5"/>
<stop offset="1" stop-color="#364689"/>
</linearGradient>
<linearGradient id="paint4_linear_117_148" x1="39.5277" y1="55.6357" x2="39.5277" y2="78.2238" gradientUnits="userSpaceOnUse">
<stop stop-color="#5066C5"/>
<stop offset="1" stop-color="#364689"/>
</linearGradient>
<linearGradient id="paint5_linear_117_148" x1="48.9816" y1="65.917" x2="48.9816" y2="85.537" gradientUnits="userSpaceOnUse">
<stop stop-color="#5066C5"/>
<stop offset="1" stop-color="#364689"/>
</linearGradient>
<linearGradient id="paint6_linear_117_148" x1="59.0783" y1="76.0474" x2="59.0783" y2="92.0003" gradientUnits="userSpaceOnUse">
<stop stop-color="#5066C5"/>
<stop offset="1" stop-color="#364689"/>
</linearGradient>
<linearGradient id="paint7_linear_117_148" x1="27.3237" y1="54.4585" x2="27.3237" y2="68.0126" gradientUnits="userSpaceOnUse">
<stop stop-color="#5066C5"/>
<stop offset="1" stop-color="#364689"/>
</linearGradient>
<clipPath id="clip0_117_148">
<rect width="145" height="92" fill="white"/>
</clipPath>
</defs>
</svg>
