<svg width="182" height="161" viewBox="0 0 182 161" fill="none" xmlns="http://www.w3.org/2000/svg">
<path fill-rule="evenodd" clip-rule="evenodd" d="M117.585 118.898L134.459 123.765L129.723 105.498L129.709 105.489C129.711 105.484 129.714 105.48 129.717 105.475L129.66 105.255L129.895 105.194C135.963 95.5138 138.256 83.9334 136.329 72.6637C134.383 61.2795 128.269 51.0273 119.178 43.9036C110.087 36.7798 98.6707 33.2945 87.1512 34.1263C75.6318 34.9582 64.8343 40.0477 56.8614 48.4036C48.8885 56.7596 44.311 67.7839 44.0202 79.3297C43.7295 90.8755 47.7464 102.116 55.2886 110.863C62.8308 119.609 73.3585 125.236 84.8215 126.647C96.1048 128.035 107.499 125.241 116.855 118.804L116.886 118.696L116.974 118.722C117.083 118.646 117.191 118.57 117.3 118.494L117.585 118.898ZM140.797 108.365C141.854 106.458 142.797 104.5 143.625 102.5C147.748 92.5446 149.016 81.5624 147.177 70.8088C144.77 56.7299 137.209 44.051 125.966 35.241C114.724 26.431 100.605 22.1207 86.3585 23.1494C72.1124 24.1782 58.7591 30.4724 48.899 40.8062C39.0388 51.1401 33.3778 64.7739 33.0182 79.0526C32.6587 93.3313 37.6263 107.233 46.9539 118.05C56.2814 128.867 69.301 135.825 83.4773 137.57C94.3052 138.902 105.216 137.12 114.967 132.535C116.625 131.755 118.25 130.895 119.835 129.955L140.114 135.804L148.541 138.235L146.34 129.745L140.797 108.365Z" fill="url(#paint0_linear_109_559)"/>
<circle cx="64.5" cy="80.5" r="9.5" fill="url(#paint1_linear_109_559)"/>
<circle cx="90.5" cy="81.5" r="9.5" fill="url(#paint2_linear_109_559)"/>
<circle cx="116.5" cy="81.5" r="9.5" fill="url(#paint3_linear_109_559)"/>
<path fill-rule="evenodd" clip-rule="evenodd" d="M166.154 57.1215C166.235 57.4146 166.315 57.7074 166.394 58H172C177.523 58 182 62.4772 182 68V93C182 98.5229 177.523 103 172 103H165.185C165.124 103.167 165.062 103.333 165 103.5H155.583C160.531 90.2416 159.371 73.6932 155.583 60.0581C151.795 46.4229 143.789 34.3365 132.711 25.5302C121.633 16.7239 108.053 11.6496 93.9146 11.0342C79.7764 10.4189 65.8062 14.294 54.0053 22.1046C42.2043 29.9151 33.1782 41.2602 28.2198 54.5147C23.2615 67.7692 22.6254 82.253 26.4026 95.8911C30.1799 109.529 38.1767 121.622 49.2475 130.437C59.4773 138.582 71.8467 143.543 84.8214 144.744C86.5374 143.047 88.8964 142 91.5 142C96.7467 142 101 146.253 101 151.5C101 156.747 96.7467 161 91.5 161C87.7138 161 84.4449 158.785 82.9184 155.58C68.1456 154.042 54.0833 148.311 42.4138 139.02C30.6741 129.672 21.9049 117.157 17.1149 103H10C4.47715 103 0 98.5229 0 93V68C0 62.4772 4.47715 58 10 58H15.6076C16.2634 55.5282 17.0424 53.082 17.9444 50.6708C23.7143 35.2469 34.2178 22.0449 47.9503 12.956C61.6827 3.86715 77.9394 -0.642261 94.3916 0.0738025C110.844 0.789866 126.647 6.69466 139.538 16.9423C152.429 27.1899 161.746 41.2546 166.154 57.1215Z" fill="url(#paint4_linear_109_559)"/>
<defs>
<linearGradient id="paint0_linear_109_559" x1="90.7705" y1="23" x2="90.7705" y2="138.235" gradientUnits="userSpaceOnUse">
<stop stop-color="#5066C5"/>
<stop offset="1" stop-color="#364689"/>
</linearGradient>
<linearGradient id="paint1_linear_109_559" x1="64.5" y1="71" x2="64.5" y2="90" gradientUnits="userSpaceOnUse">
<stop stop-color="#5066C5"/>
<stop offset="1" stop-color="#364689"/>
</linearGradient>
<linearGradient id="paint2_linear_109_559" x1="90.5" y1="72" x2="90.5" y2="91" gradientUnits="userSpaceOnUse">
<stop stop-color="#5066C5"/>
<stop offset="1" stop-color="#364689"/>
</linearGradient>
<linearGradient id="paint3_linear_109_559" x1="116.5" y1="72" x2="116.5" y2="91" gradientUnits="userSpaceOnUse">
<stop stop-color="#5066C5"/>
<stop offset="1" stop-color="#364689"/>
</linearGradient>
<linearGradient id="paint4_linear_109_559" x1="91" y1="0" x2="91" y2="161" gradientUnits="userSpaceOnUse">
<stop stop-color="#5066C5"/>
<stop offset="1" stop-color="#364689"/>
</linearGradient>
</defs>
</svg>
