<svg width="132" height="130" viewBox="0 0 132 130" fill="none" xmlns="http://www.w3.org/2000/svg">
<g clip-path="url(#clip0_117_159)">
<path d="M26.5479 17.9583C23.5231 17.9583 21.0114 17.9473 18.4944 17.9583C13.3306 17.9911 9.69543 21.0946 9.2039 26.2506C8.91223 29.3267 8.99865 32.452 9.14989 35.539C9.1823 36.1685 10.2086 36.891 10.9216 37.2905C11.4077 37.5642 12.1531 37.3617 12.785 37.3617C48.2508 37.3617 83.7219 37.3617 119.188 37.3562C122.888 37.3562 122.893 37.3507 122.898 33.6507C122.904 31.3683 122.969 29.0858 122.861 26.8089C122.612 21.5762 118.912 18.0021 113.792 17.9583C111.723 17.9419 109.649 17.8817 107.58 17.9802C105.9 18.0568 105.365 17.3124 105.392 15.7142C105.533 7.2139 104.361 9.24456 111.907 8.741C125.389 7.84883 132.41 18.8122 131.978 28.8505C131.611 37.4109 131.886 45.9988 131.886 54.5702C131.886 73.0705 131.903 91.5653 131.892 110.066C131.886 122.534 124.524 129.885 112.177 129.879C81.3885 129.858 50.6004 129.611 19.8177 129.989C6.63822 130.153 -0.0919486 119.94 -0.00552579 110.066C0.237538 82.8844 0.043087 55.6978 0.0862984 28.5166C0.107904 18.3414 5.53634 10.7826 14.2326 9.22266C17.7328 8.59322 21.4057 8.86689 24.9977 8.88878C25.5162 8.89425 26.4398 9.75906 26.4777 10.279C26.6343 12.6983 26.5479 15.1449 26.5479 17.9583ZM122.898 46.7487C121.753 46.6611 120.965 46.5516 120.182 46.5516C84.0947 46.5407 48.0131 46.5626 11.9262 46.5024C9.70623 46.4969 8.98785 47.1263 8.99865 49.4197C9.07427 69.666 9.02566 89.9123 9.05806 110.153C9.06887 117.269 12.5258 120.695 19.5098 120.695C50.649 120.695 81.7882 120.695 112.922 120.69C119.371 120.69 122.882 117.137 122.888 110.525C122.909 89.3814 122.898 68.232 122.898 46.7487Z" fill="url(#paint0_linear_117_159)"/>
<path d="M43.4005 17.953C43.4005 15.1725 43.3897 12.7314 43.4059 10.2957C43.4167 8.35259 44.8967 8.82331 45.9554 8.81784C55.9426 8.78499 65.9352 8.79594 75.9225 8.79594C79.4334 8.79594 82.9443 8.85615 86.4498 8.77405C88.0703 8.73573 88.605 9.33781 88.6698 10.9908C88.9237 17.953 88.9777 17.9476 82.2367 17.9476C70.359 17.9476 58.4759 17.9476 46.5981 17.9476C45.6421 17.953 44.6806 17.953 43.4005 17.953Z" fill="url(#paint1_linear_117_159)"/>
<path d="M30.4909 13.0595C30.4909 10.3227 30.4207 7.59148 30.5071 4.86022C30.6043 1.86624 32.3436 0.0271636 34.9039 -0.000203709C37.5559 -0.027571 39.441 1.92098 39.4789 4.98611C39.5491 10.4541 39.5545 15.9221 39.4843 21.3901C39.441 24.499 37.6046 26.3873 34.9092 26.3654C32.2517 26.3435 30.5611 24.4497 30.4909 21.2587C30.4261 18.5274 30.4801 15.7907 30.4801 13.054C30.4855 13.0595 30.4909 13.0595 30.4909 13.0595Z" fill="url(#paint2_linear_117_159)"/>
<path d="M101.504 13.12C101.504 15.9443 101.579 18.7686 101.482 21.5929C101.385 24.5486 99.6079 26.3713 97.026 26.3822C94.4441 26.3932 92.6022 24.5486 92.5644 21.6148C92.4888 15.9662 92.4834 10.3176 92.5698 4.66901C92.613 1.90492 94.4279 0.0822564 96.8748 0.0111015C99.4566 -0.0655268 101.282 1.76808 101.482 4.64712C101.493 4.82774 101.493 5.01384 101.493 5.19446C101.493 7.83814 101.493 10.4763 101.493 13.12C101.493 13.12 101.498 13.12 101.504 13.12Z" fill="url(#paint3_linear_117_159)"/>
<path d="M69.7864 65.1945V72.9011H62.1812V65.1945H69.7864ZM73.0272 57.4331H58.9349C56.4989 57.4331 54.522 59.4364 54.522 61.9049V76.1852C54.522 78.6537 56.4989 80.657 58.9349 80.657H73.0272C75.4633 80.657 77.4402 78.6537 77.4402 76.1852V61.9049C77.4402 59.4364 75.4687 57.4331 73.0272 57.4331Z" fill="url(#paint4_linear_117_159)"/>
<path d="M38.8039 65.1945V72.9011H31.1987V65.1945H38.8039ZM42.0502 57.4331H27.9579C25.5218 57.4331 23.5449 59.4364 23.5449 61.9049V76.1852C23.5449 78.6537 25.5218 80.657 27.9579 80.657H42.0502C44.4862 80.657 46.4632 78.6537 46.4632 76.1852V61.9049C46.4632 59.4364 44.4862 57.4331 42.0502 57.4331Z" fill="url(#paint5_linear_117_159)"/>
<path d="M69.7864 97.0499V104.757H62.1812V97.0499H69.7864ZM73.0272 89.2886H58.9349C56.4989 89.2886 54.522 91.2919 54.522 93.7604V108.041C54.522 110.509 56.4989 112.512 58.9349 112.512H73.0272C75.4633 112.512 77.4402 110.509 77.4402 108.041V93.7604C77.4402 91.2919 75.4687 89.2886 73.0272 89.2886Z" fill="url(#paint6_linear_117_159)"/>
<path d="M38.8039 97.0499V104.757H31.1987V97.0499H38.8039ZM42.0502 89.2886H27.9579C25.5218 89.2886 23.5449 91.2919 23.5449 93.7604V108.041C23.5449 110.509 25.5218 112.512 27.9579 112.512H42.0502C44.4862 112.512 46.4632 110.509 46.4632 108.041V93.7604C46.4632 91.2919 44.4862 89.2886 42.0502 89.2886Z" fill="url(#paint7_linear_117_159)"/>
<path d="M100.823 65.1945V72.9011H93.2178V65.1945H100.823ZM104.064 57.4331H89.9716C87.5355 57.4331 85.5586 59.4364 85.5586 61.9049V76.1852C85.5586 78.6537 87.5355 80.657 89.9716 80.657H104.064C106.5 80.657 108.477 78.6537 108.477 76.1852V61.9049C108.477 59.4364 106.5 57.4331 104.064 57.4331Z" fill="url(#paint8_linear_117_159)"/>
</g>
<defs>
<linearGradient id="paint0_linear_117_159" x1="65.9954" y1="8.68994" x2="65.9954" y2="129.991" gradientUnits="userSpaceOnUse">
<stop stop-color="#5066C5"/>
<stop offset="1" stop-color="#364689"/>
</linearGradient>
<linearGradient id="paint1_linear_117_159" x1="66.0733" y1="8.77148" x2="66.0733" y2="17.953" gradientUnits="userSpaceOnUse">
<stop stop-color="#5066C5"/>
<stop offset="1" stop-color="#364689"/>
</linearGradient>
<linearGradient id="paint2_linear_117_159" x1="34.9966" y1="-0.000488281" x2="34.9966" y2="26.3656" gradientUnits="userSpaceOnUse">
<stop stop-color="#5066C5"/>
<stop offset="1" stop-color="#364689"/>
</linearGradient>
<linearGradient id="paint3_linear_117_159" x1="97.0191" y1="0.00878906" x2="97.0191" y2="26.3823" gradientUnits="userSpaceOnUse">
<stop stop-color="#5066C5"/>
<stop offset="1" stop-color="#364689"/>
</linearGradient>
<linearGradient id="paint4_linear_117_159" x1="65.9811" y1="57.4331" x2="65.9811" y2="80.657" gradientUnits="userSpaceOnUse">
<stop stop-color="#5066C5"/>
<stop offset="1" stop-color="#364689"/>
</linearGradient>
<linearGradient id="paint5_linear_117_159" x1="35.004" y1="57.4331" x2="35.004" y2="80.657" gradientUnits="userSpaceOnUse">
<stop stop-color="#5066C5"/>
<stop offset="1" stop-color="#364689"/>
</linearGradient>
<linearGradient id="paint6_linear_117_159" x1="65.9811" y1="89.2886" x2="65.9811" y2="112.512" gradientUnits="userSpaceOnUse">
<stop stop-color="#5066C5"/>
<stop offset="1" stop-color="#364689"/>
</linearGradient>
<linearGradient id="paint7_linear_117_159" x1="35.004" y1="89.2886" x2="35.004" y2="112.512" gradientUnits="userSpaceOnUse">
<stop stop-color="#5066C5"/>
<stop offset="1" stop-color="#364689"/>
</linearGradient>
<linearGradient id="paint8_linear_117_159" x1="97.0177" y1="57.4331" x2="97.0177" y2="80.657" gradientUnits="userSpaceOnUse">
<stop stop-color="#5066C5"/>
<stop offset="1" stop-color="#364689"/>
</linearGradient>
<clipPath id="clip0_117_159">
<rect width="132" height="130" fill="white"/>
</clipPath>
</defs>
</svg>
